<svg width="24" height="24" viewBox="0 0 24 24" fill="none" xmlns="http://www.w3.org/2000/svg">
<path fill-rule="evenodd" clip-rule="evenodd" d="M7 0C3.13401 0 0 3.13401 0 7V17C0 20.866 3.13401 24 7 24H17C20.866 24 24 20.866 24 17V7C24 3.13401 20.866 0 17 0H7ZM8.51149 6.8234C8.51149 7.69836 7.88238 8.39681 6.87169 8.39681H6.85237C5.87911 8.39681 5.25 7.69836 5.25 6.8234C5.25 5.9308 5.89843 5.25 6.89101 5.25C7.88359 5.25 8.49338 5.92954 8.51149 6.8234ZM8.32071 9.64116V18.75H5.42147V9.64116H8.32071ZM12.7982 18.75V13.6629C12.7982 13.3906 12.8175 13.1183 12.8948 12.9241C13.1037 12.3807 13.5806 11.8172 14.3824 11.8172C15.4318 11.8172 15.8508 12.6518 15.8508 13.8772V18.75H18.75V13.5255C18.75 10.7267 17.3203 9.42557 15.4124 9.42557C13.8741 9.42557 13.1846 10.3081 12.7982 10.9296V9.64116H9.90013C9.93636 10.4959 9.90013 18.75 9.90013 18.75H12.7982Z" fill="white"/>
</svg>
