<svg width="24" height="24" viewBox="0 0 24 24" fill="none" xmlns="http://www.w3.org/2000/svg">
<path fill-rule="evenodd" clip-rule="evenodd" d="M7 0C3.13401 0 0 3.13401 0 7V17C0 20.866 3.13401 24 7 24H17C20.866 24 24 20.866 24 17V7C24 3.13401 20.866 0 17 0H7ZM18.7128 7.09249L16.6734 17.2754C16.5233 17.9974 16.1175 18.173 15.5512 17.8328L12.4456 15.4078L10.9486 16.9374C10.8753 17.0381 10.7812 17.1196 10.6735 17.1757C10.5659 17.2318 10.4475 17.261 10.3275 17.2611H10.3223L10.5428 13.91L16.2987 8.39936C16.5471 8.16564 16.2428 8.03287 15.9125 8.26659L8.8016 13.0135L5.73735 11.9996C5.07481 11.7768 5.05618 11.2973 5.87711 10.9528L17.8505 6.06103C18.4074 5.84596 18.8919 6.20148 18.7118 7.09358L18.7128 7.09249Z" fill="white"/>
</svg>
